<svg width="212" height="211" xmlns="http://www.w3.org/2000/svg" xmlns:xlink="http://www.w3.org/1999/xlink" xml:space="preserve" overflow="hidden"><g transform="translate(-869 -278)"><path d="M43.299 116.49C42.2 117.149 40.8813 118.028 39.7823 118.688 34.5073 122.644 30.9906 128.578 30.1115 135.172L26.1552 183.526 29.6719 184.625C30.7708 185.065 59.7833 193.417 105.72 193.417 151.656 193.417 180.449 185.065 181.768 184.625L185.284 183.526 181.548 135.611 181.548 135.172C180.449 128.798 176.932 122.864 171.877 118.907 165.723 114.292 159.129 110.335 151.876 107.478 154.953 100.884 152.316 92.9719 145.942 89.675 161.986 67.6958 157.151 36.7052 135.172 20.6604 113.193 4.61562 82.2021 9.45104 66.1573 31.4302 53.4094 48.7938 53.4094 72.3115 66.1573 89.675 59.5635 93.1917 56.926 101.104 60.2229 107.918 54.7281 110.335 48.3542 113.412 43.299 116.49ZM69.4542 105.94C67.0365 104.621 66.3771 101.544 67.6958 99.126 68.575 97.5875 70.1135 96.7083 71.8719 96.7083 90.774 114.292 120.006 114.292 138.908 96.7083 139.348 96.7083 139.788 96.7083 140.007 96.9281 142.645 97.5875 144.183 100.225 143.524 102.863 143.304 104.181 142.425 105.28 141.326 105.94 132.754 111.215 119.567 114.292 105.5 114.292 91.4333 114.292 78.4656 111.215 69.4542 105.94L69.4542 105.94ZM114.731 48.3542 121.545 50.5521C124.402 56.4865 131.875 61.5417 132.095 70.1135L132.095 72.3115C132.095 75.3885 131.655 78.2458 130.556 81.1031L120.885 81.1031C120.006 79.7844 118.688 78.9052 117.149 78.9052L112.753 78.9052C110.335 78.9052 108.357 80.8833 108.357 83.301 108.357 85.7188 110.335 87.6969 112.753 87.6969L117.149 87.6969C118.688 87.6969 120.226 86.8177 120.885 85.499L128.578 85.499C121.325 98.0271 105.28 102.423 92.5323 95.1698 85.2792 90.9938 80.4437 83.5208 79.5646 75.1688 76.4875 57.5854 101.764 63.9594 114.731 48.3542ZM105.5 19.7812C121.545 19.7812 136.051 29.2323 142.645 43.7385 133.853 37.1448 120.666 32.9688 105.5 32.9688 90.3344 32.9688 77.1469 37.1448 68.3552 43.7385 74.949 29.2323 89.4552 19.7812 105.5 19.7812ZM153.415 181.328 151.656 166.602C151.436 164.184 149.239 162.426 146.821 162.866 144.403 163.085 142.645 165.283 143.084 167.701L144.843 182.427C131.655 183.966 118.688 184.625 105.5 184.625 92.3125 184.625 79.3448 183.966 66.3771 182.427L68.1354 167.701C68.3552 165.283 66.8167 163.085 64.399 162.866 61.9813 162.646 59.7833 164.184 59.5635 166.602L59.5635 166.602 57.8052 181.328C47.475 179.79 39.7823 178.251 35.826 177.152L39.1229 136.491C39.5625 134.513 40.2219 132.315 41.3208 130.556L51.2115 138.908 59.7833 128.798 51.651 121.765C56.7062 118.688 61.7615 116.27 67.2563 114.072 77.3667 119.567 91.4333 122.864 106.159 122.864 121.105 122.864 135.172 119.567 145.282 113.852 150.777 115.83 155.832 118.468 160.887 121.545L152.535 128.798 161.107 138.908 170.998 130.556C172.097 132.315 172.756 134.293 173.196 136.491L176.493 176.932C171.438 178.251 163.965 179.79 153.415 181.328Z" fill="#156082" transform="matrix(1.00474 0 0 1 869 278)"/><path d="M15.825 79.125C14.5063 83.9604 11.2094 87.9167 6.59375 90.1146 10.9896 92.3125 14.5063 96.2688 15.825 101.104 17.1438 96.2688 20.4406 92.3125 25.0562 90.1146 20.4406 87.9167 17.1438 83.9604 15.825 79.125Z" fill="#156082" transform="matrix(1.00474 0 0 1 869 278)"/><path d="M123.083 134.073 87.9167 134.073C83.0813 134.073 79.125 138.029 79.125 142.865L79.125 160.448C79.125 165.283 83.0813 169.24 87.9167 169.24L123.083 169.24C127.919 169.24 131.875 165.283 131.875 160.448L131.875 142.865C131.875 138.029 127.919 134.073 123.083 134.073ZM87.9167 160.448 87.9167 142.865 123.083 142.865 123.083 160.448 87.9167 160.448Z" fill="#156082" transform="matrix(1.00474 0 0 1 869 278)"/><path d="M39.1229 19.7812C37.8042 24.6167 34.5073 28.5729 29.8917 30.7708 34.2875 32.9688 37.8042 36.925 39.1229 41.7604 40.4417 36.925 43.7385 32.9688 48.3542 30.7708 43.9583 28.5729 40.4417 24.6167 39.1229 19.7812Z" fill="#156082" transform="matrix(1.00474 0 0 1 869 278)"/><path d="M184.185 68.3552C182.867 73.1906 179.57 77.1469 174.954 79.3448 179.35 81.5427 182.867 85.499 184.185 90.3344 185.504 85.499 188.801 81.5427 193.417 79.3448 189.021 77.1469 185.504 73.1906 184.185 68.3552Z" fill="#156082" transform="matrix(1.00474 0 0 1 869 278)"/></g></svg>