<svg width="167" height="168" xmlns="http://www.w3.org/2000/svg" xmlns:xlink="http://www.w3.org/1999/xlink" xml:space="preserve" overflow="hidden"><g transform="translate(-543 -547)"><path d="M126.99 142.646 40.0104 142.646 40.0104 34.7917 59.1458 34.7917 59.1458 45.2292 107.854 45.2292 107.854 34.7917 126.99 34.7917ZM83.5 20.875C86.3823 20.875 88.7188 23.2114 88.7188 26.0938 88.7188 28.9761 86.3823 31.3125 83.5 31.3125 80.6177 31.3125 78.2812 28.9761 78.2812 26.0938 78.2338 23.2589 80.4933 20.9225 83.3281 20.875 83.3854 20.874 83.4428 20.874 83.5 20.875ZM130.469 24.3542 100.896 24.3542 100.896 20.875C100.896 17.032 97.7804 13.9167 93.9375 13.9167L73.0625 13.9167C69.2196 13.9167 66.1042 17.032 66.1042 20.875L66.1042 24.3542 36.5312 24.3542C32.6883 24.3542 29.5729 27.4696 29.5729 31.3125L29.5729 146.125C29.5729 149.968 32.6883 153.083 36.5312 153.083L130.469 153.083C134.312 153.083 137.427 149.968 137.427 146.125L137.427 31.3125C137.427 27.4696 134.312 24.3542 130.469 24.3542Z" fill="#004667" transform="matrix(1 0 0 1.00599 543 547)"/><path d="M50.4479 59.1458 116.552 59.1458 116.552 66.1042 50.4479 66.1042Z" fill="#004667" transform="matrix(1 0 0 1.00599 543 547)"/><path d="M90.4583 109.594 116.552 109.594 116.552 116.552 90.4583 116.552Z" fill="#004667" transform="matrix(1 0 0 1.00599 543 547)"/><path d="M50.4479 73.0625 83.5 73.0625 83.5 80.0208 50.4479 80.0208Z" fill="#004667" transform="matrix(1 0 0 1.00599 543 547)"/><path d="M74.4333 123.117C73.5766 123.503 72.6471 123.701 71.7074 123.698 71.3262 123.699 70.9458 123.668 70.5697 123.606 69.7834 124.099 68.9061 124.43 67.9899 124.579L74.9308 137.093 77.8237 132.363 83.5 133.309 76.8165 121.306C76.1659 122.079 75.352 122.698 74.4333 123.117Z" fill="#004667" transform="matrix(1 0 0 1.00599 543 547)"/><path d="M63.5244 123.784C63.1911 123.834 62.8543 123.859 62.5171 123.858 61.6627 123.858 60.8157 123.7 60.0191 123.39 58.7913 122.923 57.7276 122.106 56.9592 121.04 56.8948 121.028 56.8339 121.002 56.7696 120.986L50.4479 133.426 56.0685 132.146 58.9058 137.427 65.5162 124.526C64.8172 124.385 64.1451 124.135 63.5244 123.784Z" fill="#004667" transform="matrix(1 0 0 1.00599 543 547)"/><path d="M66.64 115.508C61.3233 115.508 57.0131 111.198 57.0131 105.881 57.0131 100.565 61.3233 96.2546 66.64 96.2546 71.9566 96.2546 76.2668 100.565 76.2668 105.881 76.2668 105.882 76.2668 105.883 76.2668 105.883 76.2649 111.199 71.9556 115.507 66.64 115.508ZM83.0547 105.883C83.0621 104.704 82.578 103.574 81.7187 102.766 82.1918 101.684 82.1918 100.454 81.7187 99.372 81.3013 98.3969 80.5244 97.62 79.5494 97.2027 79.5014 96.1563 79.0677 95.1648 78.3317 94.4194 77.4998 93.5748 76.3437 93.1309 75.1604 93.2017 74.7478 92.092 73.8717 91.2173 72.7616 90.8063 71.7782 90.4164 70.6833 90.4164 69.6999 90.8063 68.9216 90.1015 67.9125 89.7061 66.8626 89.6947 65.6837 89.6865 64.5546 90.1699 63.747 91.0289 62.6652 90.5557 61.435 90.5557 60.3531 91.0289 59.3777 91.4473 58.6005 92.2245 58.1821 93.1999 57.1357 93.2481 56.1442 93.6818 55.3988 94.4176 54.5535 95.2497 54.1096 96.4067 54.1811 97.5906 53.0736 98.0019 52.2004 98.8751 51.7891 99.9826 51.3995 100.965 51.3995 102.06 51.7891 103.042 51.0841 103.821 50.6882 104.831 50.6758 105.881 50.6687 107.061 51.1528 108.189 52.0118 108.997 51.5385 110.079 51.5385 111.309 52.0118 112.391 52.4297 113.366 53.2062 114.143 54.1811 114.562 54.2291 115.608 54.6628 116.6 55.3988 117.345 56.2301 118.19 57.3866 118.635 58.57 118.563 58.9821 119.67 59.8552 120.543 60.962 120.955 61.9453 121.345 63.0402 121.345 64.0236 120.955 64.8017 121.66 65.8109 122.056 66.8609 122.068 68.04 122.076 69.169 121.592 69.9765 120.732 71.0583 121.205 72.2886 121.205 73.3704 120.732 74.3453 120.314 75.1223 119.538 75.5414 118.563 76.5879 118.515 77.5795 118.082 78.3247 117.345 79.1697 116.514 79.6136 115.358 79.5424 114.174 80.6511 113.761 81.5245 112.885 81.9344 111.775 82.324 110.792 82.324 109.698 81.9344 108.715 82.6506 107.944 83.0505 106.931 83.0547 105.878Z" fill="#004667" transform="matrix(1 0 0 1.00599 543 547)"/></g></svg>