<svg width="386" height="387" xmlns="http://www.w3.org/2000/svg" xmlns:xlink="http://www.w3.org/1999/xlink" xml:space="preserve" overflow="hidden"><g transform="translate(-624 -233)"><path d="M42.4198 341.771C53.4107 352.763 71.2319 352.764 82.224 341.773 82.2248 341.772 82.2252 341.772 82.2261 341.771L132.688 291.309C139.244 284.748 142.147 275.378 140.448 266.26L158.019 248.488C211.09 289.123 287.054 279.042 327.689 225.971 368.325 172.9 358.244 96.9359 305.173 56.3001 252.101 15.6648 176.137 25.7459 135.502 78.8168 102.257 122.235 102.257 182.552 135.502 225.971L117.73 243.743C108.612 242.044 99.2414 244.947 92.6802 251.503L42.4198 301.764C31.3721 312.699 31.2809 330.52 42.2163 341.567 42.2839 341.635 42.3514 341.703 42.4198 341.771ZM134.698 152.792C134.698 99.4963 177.903 56.2917 231.198 56.2917 284.493 56.2917 327.698 99.4963 327.698 152.792 327.698 206.087 284.493 249.292 231.198 249.292 177.967 249.137 134.852 206.023 134.698 152.792Z" fill="#156082" transform="matrix(1 0 0 1.00259 624 233)"/><path d="M293.521 178.686 275.146 160.471C274.502 159.982 273.738 159.676 272.934 159.587L261.595 159.587C261.193 157.174 260.751 154.722 260.228 152.349L274.945 149.535C276.757 149.199 278.187 147.801 278.563 145.996L284.715 118.213C285.33 115.734 283.818 113.226 281.339 112.612 281.299 112.602 281.258 112.592 281.217 112.583 278.772 112.02 276.333 113.545 275.769 115.99 275.762 116.02 275.755 116.051 275.749 116.081L270.24 140.93 257.695 143.303C256.991 140.986 255.991 138.769 254.72 136.708L207.676 136.708C206.395 138.807 205.395 141.065 204.701 143.423L192.156 141.051 186.687 116.202C185.948 113.757 183.368 112.375 180.923 113.114 178.745 113.773 177.369 115.918 177.681 118.172L183.833 145.956C184.229 147.75 185.649 149.139 187.451 149.495L202.167 152.309C201.645 154.681 201.203 157.134 200.841 159.547L189.341 159.547C188.523 159.627 187.743 159.933 187.089 160.431L168.875 178.686C166.843 180.207 166.429 183.087 167.95 185.119 169.471 187.151 172.352 187.565 174.384 186.044L191.754 168.553 199.795 168.553C199.795 169.92 199.795 171.127 199.795 172.172 199.808 174.569 200.092 176.956 200.64 179.289L188.899 182.224C187.41 182.59 186.203 183.677 185.682 185.119L176.072 211.415C175.206 213.802 176.427 216.441 178.806 217.326 179.312 217.497 179.841 217.592 180.375 217.607 182.311 217.611 184.044 216.407 184.717 214.592L193.482 190.467 204.098 187.813C208.779 195.764 216.747 201.229 225.85 202.73L227.338 202.248 227.338 168.875C227.338 166.654 229.138 164.854 231.359 164.854 233.579 164.854 235.38 166.654 235.38 168.875L235.38 202.328 236.867 202.811C245.98 201.33 253.956 195.86 258.62 187.894L269.235 190.547 278.041 214.672C278.689 216.489 280.414 217.698 282.343 217.688 282.877 217.672 283.405 217.577 283.911 217.406 286.291 216.521 287.511 213.883 286.645 211.496L276.875 184.958C276.354 183.516 275.147 182.43 273.658 182.063L261.917 179.128C262.465 176.795 262.748 174.408 262.761 172.011 262.761 170.966 262.761 169.76 262.761 168.393L270.803 168.393 288.173 185.883C289.846 187.783 292.743 187.967 294.643 186.294 296.543 184.621 296.726 181.724 295.053 179.825 294.628 179.342 294.106 178.954 293.521 178.686Z" fill="#156082" transform="matrix(1 0 0 1.00259 624 233)"/><path d="M255.082 86.2067C256.562 85.468 257.185 83.686 256.489 82.1858 255.722 80.7379 253.959 80.1384 252.468 80.8188 248.594 82.7894 245.318 85.7604 242.979 89.4233 241.279 92.1093 239.928 95.0006 238.958 98.0279 234.076 96.0975 228.642 96.0975 223.759 98.0279 222.823 94.9878 221.47 92.092 219.739 89.4233 217.408 85.7523 214.13 82.7793 210.249 80.8188 208.76 80.1163 206.981 80.721 206.229 82.1858 205.503 83.6743 206.114 85.4688 207.596 86.2067 210.365 87.6751 212.706 89.8363 214.391 92.4792 216.058 95.0778 217.293 97.9294 218.05 100.923 210.887 106.683 206.827 115.458 207.073 124.646 207.085 125.99 207.179 127.333 207.354 128.667L255.041 128.667C255.217 127.333 255.31 125.99 255.323 124.646 255.512 115.515 251.458 106.813 244.346 101.084 245.102 98.0902 246.338 95.2387 248.005 92.64 249.746 89.901 252.189 87.6791 255.082 86.2067Z" fill="#156082" transform="matrix(1 0 0 1.00259 624 233)"/></g></svg>