<svg width="96" height="96" xmlns="http://www.w3.org/2000/svg" xmlns:xlink="http://www.w3.org/1999/xlink" xml:space="preserve" overflow="hidden"><g transform="translate(-472 -249)"><path d="M492 301 520 301 520 305 492 305Z" fill="#156082"/><path d="M492 309 520 309 520 313 492 313Z" fill="#156082"/><path d="M496.4 291.3C496.5 291.3 507.1 287.5 520 287.5 532.9 287.5 543.5 291.3 543.6 291.3 544 291.4 544.3 291.5 544.7 291.5 546.1 291.5 547.4 290.6 547.8 289.1 548.4 287.3 547.5 285.3 545.7 284.7 545.3 284.5 534 280.5 520 280.5 506 280.5 494.7 284.5 494.2 284.7 492.5 285.3 491.5 287.3 492.1 289.1 492.8 291 494.7 291.9 496.4 291.3" fill="#156082"/><path d="M480 325 560 325 560 269 480 269 480 325ZM554 319 486 319 486 275 554 275 554 319Z" fill="#156082"/><path d="M545.5 304.3 545.9 301.6 543.3 302.1 542.3 299.5 540.3 301.3 538.2 299.5 537.3 302.1 534.6 301.6 535.1 304.3 532.5 305.2 534.3 307.3 532.5 309.3 535.1 310.3 534.6 312.9 537.3 312.5 538.2 315 540.3 313.3 542.3 315 543.3 312.5 545.9 312.9 545.5 310.3 548 309.3 546.3 307.3 548 305.2Z" fill="#156082"/></g></svg>