<svg width="168" height="168" xmlns="http://www.w3.org/2000/svg" xmlns:xlink="http://www.w3.org/1999/xlink" xml:space="preserve" overflow="hidden"><g transform="translate(-293 -186)"><path d="M443.5 312C443.5 314.275 440.875 316.375 436.5 317.95L436.5 311.65C438.95 310.95 441.4 309.9 443.5 308.85L443.5 312ZM429.5 300.45 429.5 294.15C431.95 293.45 434.4 292.4 436.5 291.35L436.5 294.5C436.5 296.775 433.875 298.875 429.5 300.45ZM429.5 320.05C427.4 320.575 424.95 320.925 422.5 321.275L422.5 314.45C424.775 314.1 427.225 313.75 429.5 313.4L429.5 320.05ZM415.5 296.95C417.775 296.6 420.225 296.25 422.5 295.9L422.5 302.55C420.4 303.075 417.95 303.425 415.5 303.775L415.5 296.95ZM415.5 322.15C413.225 322.325 410.95 322.5 408.5 322.5L408.5 315.5C410.6 315.5 413.05 315.325 415.5 315.15L415.5 322.15ZM401.5 305 401.5 298C403.6 298 406.05 297.825 408.5 297.65L408.5 304.65C406.225 304.825 403.95 304.825 401.5 305ZM401.5 322.5C399.05 322.5 396.775 322.325 394.5 322.15L394.5 315.5C395.725 315.5 396.775 315.5 398 315.5 399.05 315.5 400.275 315.5 401.5 315.5L401.5 322.5ZM387.5 297.65C389.775 297.825 392.05 298 394.5 298L394.5 305C392.05 305 389.775 304.825 387.5 304.65L387.5 297.65ZM387.5 321.275C385.05 320.925 382.6 320.575 380.5 320.05L380.5 314.45C382.775 314.8 385.05 314.975 387.5 315.15L387.5 321.275ZM373.5 302.55 373.5 295.725C375.775 296.075 378.05 296.6 380.5 296.775L380.5 303.775C378.05 303.425 375.6 303.075 373.5 302.55ZM373.5 317.95C369.125 316.2 366.5 314.1 366.5 312L366.5 311.65C366.5 311.65 366.5 311.65 366.675 311.65 367.2 311.825 367.55 312 368.075 312 369.825 312.525 371.575 312.875 373.5 313.225L373.5 317.95ZM345.5 294.15C346.725 294.15 347.775 294.325 349 294.325L349 294.5C349 296.95 349.525 299.4 350.75 301.325 349 301.325 347.25 301.15 345.5 300.975L345.5 294.15ZM338.5 273.15C340.775 273.5 343.05 274.025 345.5 274.2L345.5 281.2C343.05 280.85 340.6 280.5 338.5 279.975L338.5 273.15ZM338.5 300.275C336.05 299.925 333.6 299.575 331.5 299.05L331.5 292.225C333.775 292.575 336.05 293.1 338.5 293.275L338.5 300.275ZM324.5 271.75 324.5 268.6C326.6 269.65 328.875 270.525 331.5 271.225L331.5 277.7C327.125 276.125 324.5 274.025 324.5 271.75ZM324.5 296.95C320.125 295.2 317.5 293.1 317.5 291L317.5 287.85C319.6 288.9 321.875 289.775 324.5 290.475L324.5 296.95ZM317.5 242.35C319.6 243.4 321.875 244.275 324.5 244.975L324.5 251.45C320.125 249.7 317.5 247.6 317.5 245.5L317.5 242.35ZM338.5 247.95 338.5 254.95C336.05 254.6 333.6 254.25 331.5 253.725L331.5 246.9C333.775 247.25 336.05 247.6 338.5 247.95ZM356 217.5C377.35 217.5 394.5 222.225 394.5 228 394.5 233.775 377.35 238.5 356 238.5 334.65 238.5 317.5 233.775 317.5 228 317.5 222.225 334.65 217.5 356 217.5ZM366.5 300.45C362.125 298.7 359.5 296.6 359.5 294.5L359.5 291.35C361.6 292.4 363.875 293.275 366.5 293.975L366.5 300.45ZM387.5 251.45 387.5 245.15C389.95 244.45 392.4 243.4 394.5 242.35L394.5 245.5C394.5 247.775 391.875 249.875 387.5 251.45ZM373.5 254.775 373.5 247.95C375.775 247.6 378.225 247.25 380.5 246.9L380.5 253.55C378.4 254.075 375.95 254.425 373.5 254.775ZM359.5 256 359.5 249C361.6 249 364.05 248.825 366.5 248.65L366.5 255.65C364.225 255.825 361.95 255.825 359.5 256ZM345.5 255.65 345.5 248.65C347.775 248.825 350.05 249 352.5 249L352.5 256C350.05 255.825 347.775 255.825 345.5 255.65ZM436.5 277C436.5 282.775 419.35 287.5 398 287.5 376.65 287.5 359.5 282.775 359.5 277 359.5 271.225 376.65 266.5 398 266.5 419.35 266.5 436.5 271.225 436.5 277ZM447 282.25 447 277C447 268.775 440.525 262.825 427.925 259.5 423.2 258.275 417.775 257.225 411.65 256.7 411.825 256 411.825 255.125 411.825 254.25 411.825 249.35 409.55 245.15 404.825 242L404.825 228C404.825 219.775 398.35 213.825 385.75 210.5 377.525 208.225 367.025 207 355.825 207 341.125 207 306.825 209.1 306.825 228L306.825 245.5C306.825 250.4 309.1 254.6 313.825 257.75L313.825 261.075C309.625 264.05 306.825 268.075 306.825 273.5L306.825 291C306.825 299.225 313.3 305.175 325.9 308.5 334.125 310.775 344.625 312 355.825 312 355.825 320.225 362.3 326.175 374.9 329.5 383.125 331.775 393.625 333 404.825 333 419.525 333 453.825 330.9 453.825 312L453.825 294.5C454 289.6 451.725 285.4 447 282.25Z" fill="#004667"/></g></svg>