<svg width="143" height="143" xmlns="http://www.w3.org/2000/svg" xmlns:xlink="http://www.w3.org/1999/xlink" xml:space="preserve" overflow="hidden"><g transform="translate(-379 -35)"><path d="M501.146 159.529 471.354 131.227 501.146 102.925 501.146 159.529ZM404.621 163.104 434.115 135.249 436.2 133.312C444.244 125.716 456.905 125.716 464.949 133.312L467.034 135.249 496.379 163.104 404.621 163.104ZM399.854 102.776 429.646 131.078 399.854 159.38 399.854 102.776ZM420.708 64.7917 480.292 64.7917 480.292 114.395 466.885 127.205C457.203 119.757 443.797 119.757 434.115 127.205L420.708 114.395 420.708 64.7917ZM489.229 68.8135 489.229 55.8542 468.375 55.8542 450.5 40.9583 432.625 55.8542 411.771 55.8542 411.771 68.9625 390.917 88.774 390.917 172.042 510.083 172.042 510.083 88.774 489.229 68.8135Z" fill="#156082"/><path d="M450.5 98.0094C447.819 98.0094 445.733 95.775 445.733 93.2427 445.733 90.5615 447.968 88.476 450.5 88.476 453.181 88.476 455.267 90.5615 455.267 93.2427 455.267 95.924 453.181 98.0094 450.5 98.0094ZM450.5 112.458C453.926 112.458 457.203 111.565 460.182 110.075 461.374 109.33 461.821 107.841 461.225 106.649 460.48 105.457 458.991 105.01 457.799 105.606 455.565 106.798 453.032 107.394 450.5 107.394 442.605 107.394 436.051 100.84 436.2 92.9448 436.2 85.05 442.754 78.4958 450.649 78.4958 458.544 78.4958 465.098 84.901 465.098 92.9448L465.098 97.7115C462.417 97.7115 460.331 95.626 460.331 92.9448 460.331 88.1781 457.054 84.1562 452.436 83.2625 447.819 82.3688 443.201 84.901 441.562 89.2208 439.924 93.5406 441.562 98.6052 445.584 100.989 449.606 103.372 454.82 102.627 457.948 99.0521 459.735 101.138 462.417 102.329 465.247 102.329 467.928 102.329 470.014 100.244 470.014 97.5625L470.014 92.7958C470.014 82.0708 461.374 73.4313 450.649 73.4313 439.924 73.4313 431.284 82.0708 431.284 92.7958 431.135 103.67 439.775 112.309 450.5 112.458Z" fill="#156082"/></g></svg>