<svg width="168" height="167" xmlns="http://www.w3.org/2000/svg" xmlns:xlink="http://www.w3.org/1999/xlink" xml:space="preserve" overflow="hidden"><g transform="translate(-48 -546)"><path d="M12.1771 106.115 142.228 106.115 126.781 90.6671C124.816 88.5584 124.933 85.2561 127.041 83.2913 129.045 81.4236 132.152 81.4236 134.157 83.2913L158.511 107.645C160.546 109.683 160.546 112.984 158.511 115.021L134.157 139.375C132.119 141.41 128.818 141.41 126.781 139.375 124.746 137.338 124.746 134.037 126.781 132L142.228 116.552 12.1771 116.552C9.29486 116.552 6.95833 114.216 6.95833 111.333 6.95833 108.451 9.29486 106.115 12.1771 106.115Z" fill="#156082" transform="matrix(1.00599 0 0 1 48 546)"/><path d="M154.823 50.4479 24.7717 50.4479 40.2192 35.0004C42.3279 33.0356 42.4444 29.7333 40.4796 27.6246 38.5147 25.5159 35.2123 25.3993 33.1037 27.3642 33.0138 27.4478 32.927 27.5348 32.8433 27.6246L8.48917 51.9787C6.45419 54.0163 6.45419 57.317 8.48917 59.3546L32.8433 83.7087C34.8809 85.7437 38.1816 85.7437 40.2192 83.7087 42.2541 81.6712 42.2541 78.3705 40.2192 76.3329L24.7717 60.8854 154.823 60.8854C157.705 60.8854 160.042 58.549 160.042 55.6667 160.042 52.7844 157.705 50.4479 154.823 50.4479Z" fill="#156082" transform="matrix(1.00599 0 0 1 48 546)"/></g></svg>