<svg width="168" height="168" xmlns="http://www.w3.org/2000/svg" xmlns:xlink="http://www.w3.org/1999/xlink" xml:space="preserve" overflow="hidden"><g transform="translate(-46 -353)"><path d="M184.25 484.25 184.25 480.75 177.25 480.75 177.25 421.25 184.25 421.25 184.25 417.75 189.5 417.75 189.5 407.25 184.25 407.25 130 374 75.75 407.25 70.5 407.25 70.5 417.75 75.75 417.75 75.75 421.25 82.75 421.25 82.75 480.75 75.75 480.75 75.75 484.25 63.5 493 63.5 500 130 500 196.5 500 196.5 493 184.25 484.25ZM103.75 480.75 93.25 480.75 93.25 421.25 103.75 421.25 103.75 480.75ZM124.75 480.75 114.25 480.75 114.25 421.25 124.75 421.25 124.75 480.75ZM128.25 403.75C124.4 403.75 121.25 400.6 121.25 396.75 121.25 392.9 124.4 389.75 128.25 389.75 132.1 389.75 135.25 392.9 135.25 396.75 135.25 400.6 132.1 403.75 128.25 403.75ZM145.75 480.75 135.25 480.75 135.25 421.25 145.75 421.25 145.75 480.75ZM166.75 480.75 156.25 480.75 156.25 421.25 166.75 421.25 166.75 480.75Z" fill="#156082"/></g></svg>