<svg width="211" height="211" xmlns="http://www.w3.org/2000/svg" xmlns:xlink="http://www.w3.org/1999/xlink" xml:space="preserve" overflow="hidden"><g transform="translate(-1123 -521)"><path d="M1228.5 551.771C1187.18 551.771 1153.77 585.179 1153.77 626.5 1153.77 667.821 1187.18 701.229 1228.5 701.229 1269.82 701.229 1303.23 667.821 1303.23 626.5L1303.23 626.5C1303.23 585.179 1269.82 551.771 1228.5 551.771ZM1181.24 648.919C1177.51 648.919 1174.65 646.061 1174.65 642.325 1174.65 638.589 1177.51 635.731 1181.24 635.731 1184.98 635.731 1187.84 638.589 1187.84 642.325 1187.84 646.061 1184.98 648.919 1181.24 648.919ZM1192.23 613.752C1186.08 613.752 1181.24 608.917 1181.24 602.763 1181.24 596.608 1186.08 591.773 1192.23 591.773 1198.39 591.773 1203.22 596.608 1203.22 602.763 1203.22 608.917 1198.39 613.752 1192.23 613.752ZM1206.52 674.195C1204.1 674.195 1202.12 672.217 1202.12 669.799 1202.12 667.381 1204.1 665.403 1206.52 665.403 1208.94 665.403 1210.92 667.381 1210.92 669.799 1210.92 672.217 1208.94 674.195 1206.52 674.195ZM1220.81 632.874C1218.39 632.874 1216.41 630.896 1216.41 628.478 1216.41 626.06 1218.39 624.082 1220.81 624.082 1223.22 624.082 1225.2 626.06 1225.2 628.478 1225.2 630.896 1223.22 632.874 1220.81 632.874ZM1224.54 581.882C1224.54 578.146 1227.4 575.289 1231.14 575.289 1234.87 575.289 1237.73 578.146 1237.73 581.882 1237.73 585.619 1234.87 588.476 1231.14 588.476 1227.62 588.476 1224.54 585.619 1224.54 581.882ZM1244.98 673.096C1238.83 673.096 1233.99 668.26 1233.99 662.106 1233.99 655.952 1238.83 651.117 1244.98 651.117 1251.14 651.117 1255.97 655.952 1255.97 662.106 1255.97 668.26 1251.14 673.096 1244.98 673.096ZM1255.97 628.478C1252.24 628.478 1249.38 625.621 1249.38 621.884 1249.38 618.148 1252.24 615.291 1255.97 615.291 1259.71 615.291 1262.57 618.148 1262.57 621.884 1262.57 625.621 1259.71 628.478 1255.97 628.478ZM1264.77 598.367C1262.35 598.367 1260.37 596.389 1260.37 593.971 1260.37 591.553 1262.35 589.575 1264.77 589.575 1267.18 589.575 1269.16 591.553 1269.16 593.971 1269.16 596.389 1267.18 598.367 1264.77 598.367ZM1284.55 644.523C1282.13 644.523 1280.15 642.545 1280.15 640.127 1280.15 637.709 1282.13 635.731 1284.55 635.731 1286.96 635.731 1288.94 637.709 1288.94 640.127 1288.94 642.545 1286.96 644.523 1284.55 644.523Z" fill="#004667"/></g></svg>