<svg width="168" height="168" xmlns="http://www.w3.org/2000/svg" xmlns:xlink="http://www.w3.org/1999/xlink" xml:space="preserve" overflow="hidden"><g transform="translate(-316 -360)"><path d="M428.525 480.925C425.9 478.3 424.325 474.625 424.325 470.95L423.275 469.9C407.35 479.7 387.05 478.65 372.175 467.275L371.65 467.625C369.725 469.025 368.5 471.3 368.5 473.75L368.5 489.5 431.5 489.5 431.5 483.9 428.525 480.925Z" fill="#004667"/><path d="M444.625 429.125C453.2 427.725 458.975 419.5 457.575 410.925 456.175 402.35 447.95 396.575 439.375 397.975 436.925 398.325 434.65 399.375 432.725 400.775 439.9 408.475 444.1 418.45 444.625 429.125Z" fill="#004667"/><path d="M470.35 442.95C465.8 439.45 460.55 436.825 454.95 435.6 451.625 434.55 448.125 434.025 444.625 433.675 444.275 441.2 442 448.55 437.975 455.025L439.025 456.075C442.7 456.075 446.375 457.65 449 460.275L453.725 465 473.5 465 473.5 449.25C473.5 446.8 472.45 444.35 470.35 442.95Z" fill="#004667"/><path d="M461.95 480.575 445.5 463.95C443.225 461.85 440.25 460.8 437.1 461.5L431.15 455.725C436.575 448.725 439.375 440.325 439.375 431.575 439.55 409.525 421.7 391.5 399.475 391.325 377.25 391.15 359.575 409 359.575 431.05 359.575 453.1 377.25 471.125 399.475 471.3 408.225 471.3 416.8 468.5 423.975 463.075L429.925 468.85C429.4 471.825 430.275 474.975 432.375 477.25L449 493.875C452.5 497.55 458.45 497.725 462.125 494.225 465.8 490.725 465.975 484.775 462.475 481.1 462.3 480.925 462.125 480.75 461.95 480.575L461.95 480.575ZM399.65 399.55C417.325 399.55 431.5 413.725 431.5 431.4 431.5 438.925 428.875 446.275 423.975 451.875 420.65 450.3 417.325 449.075 413.825 448.2 409.1 446.8 404.2 445.925 399.3 445.925 394.4 445.925 389.5 446.8 384.775 448.2 381.45 449.075 378.3 450.3 375.325 452.05 363.95 438.75 365.525 418.625 378.825 407.25 384.6 402.175 391.95 399.55 399.65 399.55Z" fill="#004667"/><path d="M416.975 424.4C416.975 434.162 409.062 442.075 399.3 442.075 389.538 442.075 381.625 434.162 381.625 424.4 381.625 414.638 389.538 406.725 399.3 406.725 409.062 406.725 416.975 414.638 416.975 424.4Z" fill="#004667"/><path d="M354.5 433.675C351.35 434.025 348.2 434.55 345.05 435.6 339.625 437.175 334.375 439.8 329.65 442.95 327.55 444.35 326.5 446.8 326.5 449.25L326.5 465 364.3 465C365 463.95 365.875 463.075 366.925 462.375 359.4 454.5 355.025 444.35 354.5 433.675Z" fill="#004667"/><path d="M354.5 428.95C355.025 418.275 359.4 408.3 366.75 400.425 359.575 395.525 349.775 397.45 344.875 404.8 339.975 412.15 341.9 421.775 349.25 426.675 350.825 427.725 352.575 428.425 354.5 428.95Z" fill="#004667"/></g></svg>