<svg width="96" height="96" xmlns="http://www.w3.org/2000/svg" xmlns:xlink="http://www.w3.org/1999/xlink" xml:space="preserve" overflow="hidden"><g transform="translate(-881 -251)"><path d="M930.85 332.276 930.85 324.027C931.791 324.966 932.849 325.778 934 326.443 934.275 326.706 935.376 327.95 934.862 330.657 934.637 331.702 935.283 332.736 936.321 332.991 936.429 333.01 936.539 333.02 936.649 333.02 937.526 333.018 938.281 332.402 938.459 331.543 938.675 330.537 938.742 329.504 938.659 328.478 939.338 328.708 940.019 328.924 940.696 329.138 941.407 329.363 942.111 329.585 942.804 329.821 942.337 331.421 942.282 334.121 944.889 337.743 945.487 338.573 946.644 338.761 947.474 338.164 947.568 338.096 947.655 338.02 947.735 337.936 948.341 337.254 948.385 336.24 947.84 335.508 946.347 333.408 946.166 332.017 946.254 331.248 948.104 332.185 949.733 333.506 951.032 335.123 951.674 335.918 952.838 336.043 953.633 335.401 953.715 335.335 953.79 335.263 953.859 335.185 954.46 334.465 954.451 333.416 953.837 332.707 950.2 328.258 945.744 326.851 941.81 325.607 937.585 324.277 933.9 323.1 931.331 318.5 931.02 317.951 930.855 317.331 930.85 316.7L930.85 314.234 930.85 314.234C930.921 307.676 930.762 307.167 930.382 304.919 930.833 304.2 931.442 303.594 932.164 303.147 934.432 308.148 940.324 310.364 945.326 308.097 945.605 307.97 945.879 307.83 946.146 307.678L946.146 307.678C953.779 303.471 954.727 295.678 954.727 286.94 954.727 286.94 946.455 289.23 941.218 289.073 935.721 289.074 931.265 293.53 931.264 299.027 931.264 299.09 931.272 299.15 931.273 299.213 930.685 299.534 930.122 299.899 929.588 300.304 928.452 293.323 927.778 286.118 930.057 278.226 931.07 277.851 932.125 277.603 933.199 277.486 933.42 279.779 935.193 281.617 937.477 281.919L937.477 281.919C941.788 282.558 944.525 279.746 947.177 276.269 945.052 275.424 943.032 274.336 941.157 273.026 939.111 271.474 936.219 271.74 934.491 273.639 933.518 273.628 932.547 273.713 931.591 273.895 932.829 270.989 934.355 268.215 936.146 265.613 938.822 266.199 941.466 264.506 942.053 261.83 942.131 261.476 942.169 261.114 942.168 260.751 942.262 258.467 942.62 256.202 943.235 254 938.865 254 934.969 254.474 932.866 258.291L932.866 258.291C931.942 259.908 932.003 261.906 933.023 263.464 931.896 265.113 930.861 266.823 929.923 268.587 929.552 268.15 929.154 267.718 928.715 267.287 928.748 267.086 928.769 266.884 928.777 266.681 928.779 263.932 926.553 261.702 923.804 261.7 923.803 261.7 923.801 261.7 923.8 261.7 921.515 261.606 919.249 261.248 917.046 260.633 917.046 265.003 917.52 268.898 921.337 271.002L921.337 271.002C923.037 271.976 925.153 271.852 926.728 270.685 927.23 271.234 927.685 271.825 928.088 272.451 925.45 278.782 924.342 285.646 924.853 292.486L924.853 292.486C924.124 292.115 923.372 291.743 922.598 291.386 923.514 285.999 919.89 280.889 914.503 279.973 913.934 279.876 913.357 279.829 912.78 279.833 907.543 279.99 899.271 277.7 899.271 277.7 899.271 286.44 900.219 294.231 907.852 298.438L907.852 298.438C912.53 301.107 918.484 299.564 921.275 294.957 921.784 295.199 922.291 295.449 922.805 295.709 923.584 296.101 924.405 296.498 925.262 296.883 925.606 299.659 926.071 302.351 926.54 304.967 926.927 307.387 927.13 309.832 927.149 312.282L927.149 312.282C927.155 313.261 927.006 314.235 926.71 315.168 924.885 320.795 922.217 321.88 918.347 323.44 913.095 325.248 908.515 328.606 905.211 333.071 904.631 333.803 904.661 334.846 905.283 335.543 905.987 336.283 907.158 336.313 907.898 335.609 907.969 335.542 908.035 335.469 908.094 335.391 909.415 333.622 910.959 332.032 912.687 330.658 912.895 332.067 912.791 333.504 912.381 334.868 912.099 335.805 912.562 336.804 913.459 337.195 913.674 337.278 913.903 337.322 914.134 337.322 914.959 337.321 915.684 336.774 915.912 335.981 916.668 333.563 916.692 330.975 915.981 328.544 917.116 327.964 918.279 327.442 919.466 326.979 919.53 328.06 919.808 329.117 920.283 330.089 920.723 331.012 921.828 331.403 922.75 330.963 922.87 330.906 922.983 330.836 923.088 330.755 923.778 330.173 923.978 329.193 923.572 328.387 922.991 327.384 922.979 326.149 923.54 325.135 924.915 324.379 926.138 323.375 927.149 322.174L927.149 331.125C924.758 332.703 922.592 334.6 920.713 336.763 920.04 337.533 920.118 338.702 920.888 339.375 921.658 340.048 922.827 339.97 923.5 339.2 924.63 337.93 925.85 336.743 927.151 335.649L927.151 342.39C927.13 343.32 927.779 344.131 928.691 344.314 929.7 344.484 930.655 343.804 930.825 342.796 930.842 342.694 930.851 342.592 930.851 342.489L930.851 337.289C931.998 338.045 933.1 338.868 934.151 339.753 934.935 340.409 936.102 340.305 936.757 339.521 937.408 338.742 937.31 337.584 936.538 336.926 934.807 335.412 932.899 334.114 930.854 333.062Z" fill="#004667"/></g></svg>