<svg width="167" height="168" xmlns="http://www.w3.org/2000/svg" xmlns:xlink="http://www.w3.org/1999/xlink" xml:space="preserve" overflow="hidden"><g transform="translate(-702 -540)"><path d="M119.335 19.8312C113.769 18.6135 108.376 17.2219 103.157 15.3083 99.1562 13.9167 89.5885 9.21979 85.5875 7.13229 84.3698 6.43646 82.8042 6.43646 81.5865 7.13229 77.5854 9.21979 67.8438 13.9167 64.0167 15.4823 58.624 17.3958 53.2313 18.7875 47.6646 20.0052 45.4031 20.5271 44.0115 22.7885 44.5333 25.05 44.7073 25.7458 45.0552 26.6156 45.5771 27.1375L52.5354 34.0958 52.5354 36.3573C52.5354 38.4448 53.4052 40.5323 54.9708 41.924 44.5333 61.4073 55.1448 86.9792 55.8406 89.0667 48.7083 91.676 41.924 95.5031 35.8354 100.2 31.8344 103.505 29.5729 108.202 29.399 113.247L29.399 143.864 30.9646 144.907C39.1406 150.474 60.1896 153.257 81.5865 153.431L81.5865 101.766 71.3229 112.377 56.5365 88.7188 59.8417 87.501 72.1927 106.81 81.9344 96.7208 81.9344 96.3729 69.7573 81.5865C78.2812 86.4573 88.8927 86.6312 97.4167 81.5865L85.2396 96.3729 85.2396 96.7208 94.9812 106.81 107.332 87.3271 110.637 88.5448 95.5031 112.377 85.2396 101.766 85.2396 153.257C107.158 153.083 128.555 150.3 136.035 144.733L137.427 143.69 137.427 113.073C137.253 108.028 134.818 103.331 130.991 100.026 125.076 95.3292 118.466 91.5021 111.333 88.8927 111.333 88.8927 123.336 61.7552 112.203 41.4021 113.595 40.0104 114.465 38.0969 114.465 36.0094L114.465 33.9219 121.423 26.9635C122.989 25.3979 122.989 22.6146 121.423 21.049 120.727 20.5271 120.031 20.0052 119.335 19.8312L119.335 19.8312ZM89.7625 27.3115C89.7625 32.7042 83.5 34.4437 83.5 34.4437 83.5 34.4437 77.2375 32.7042 77.2375 27.3115 77.2375 25.05 77.9333 25.05 77.9333 23.3104 77.7594 22.6146 77.5854 21.9188 77.0635 21.3969L79.325 19.1354C79.8469 19.6573 80.7167 20.0052 81.5865 20.0052 82.4563 20.0052 83.1521 19.6573 83.8479 19.1354 84.5437 19.6573 85.2396 20.0052 86.1094 20.0052 86.9792 20.0052 87.675 19.6573 88.1969 19.1354L90.4583 21.3969C89.9365 21.9188 89.7625 22.6146 89.5885 23.3104 89.2406 25.05 89.7625 25.05 89.7625 27.3115ZM83.5 78.2812C72.0188 78.2812 62.625 68.8875 62.625 57.4062L62.625 46.6208C75.6719 53.5792 91.3281 53.4052 104.375 46.4469L104.375 57.4062C104.375 68.8875 94.9812 78.2812 83.5 78.2812ZM124.206 120.553C124.206 126.642 117.074 128.729 117.074 128.729 117.074 128.729 109.942 126.642 109.942 120.553 109.942 118.118 110.637 118.118 110.637 116.03 110.464 115.16 110.116 114.465 109.594 113.769L112.029 111.333C112.725 112.029 113.595 112.377 114.465 112.377 115.334 112.377 116.204 112.029 116.9 111.507 117.596 112.029 118.466 112.377 119.335 112.377 120.205 112.377 121.075 112.029 121.771 111.333L124.206 113.769C123.684 114.465 123.336 115.16 123.163 116.03 123.51 117.944 124.206 117.944 124.206 120.553Z" fill="#004667" transform="matrix(1 0 0 1.00599 702 540)"/></g></svg>