<svg width="577" height="576" xmlns="http://www.w3.org/2000/svg" xmlns:xlink="http://www.w3.org/1999/xlink" xml:space="preserve" overflow="hidden"><g transform="translate(-2331 -817)"><path d="M492 384 84 384 84 120 492 120 492 384ZM504 84 72 84C58.8 84 48 94.8 48 108L48 396C48 409.2 58.8 420 72 420L240 420 240 456 180 456 180 492 396 492 396 456 336 456 336 420 504 420C517.2 420 528 409.2 528 396L528 108C528 94.8 517.2 84 504 84Z" fill="#004667" transform="matrix(1.00174 0 0 1 2331 817)"/><g><g><g><path d="M2626.9 1137.3 2626.9 1154.24 2614.1 1154.24 2614.1 1137.3C2606.75 1134.74 2601.31 1127.7 2601.31 1119.07 2601.31 1108.51 2609.95 1099.88 2620.5 1099.88 2631.05 1099.88 2639.69 1108.51 2639.69 1119.07 2639.69 1127.38 2634.25 1134.42 2626.9 1137.3ZM2572.53 1019.93C2572.53 993.39 2593.96 971.964 2620.5 971.964 2647.04 971.964 2668.47 993.39 2668.47 1019.93L2668.47 1055.43 2620.5 1051.91 2572.53 1055.43 2572.53 1019.93ZM2687.66 1056.71 2687.66 1019.93C2687.66 982.837 2657.6 952.776 2620.5 952.776 2583.4 952.776 2553.34 982.837 2553.34 1019.93L2553.34 1056.71 2530.96 1058.31 2530.96 1179.83 2620.5 1186.22 2710.04 1179.83 2710.04 1058.31 2687.66 1056.71Z" fill="#004667"/></g></g></g></g></svg>