<svg width="168" height="167" xmlns="http://www.w3.org/2000/svg" xmlns:xlink="http://www.w3.org/1999/xlink" xml:space="preserve" overflow="hidden"><g transform="translate(-536 -199)"><path d="M136.639 39.7373C118.188 38.2653 100.984 29.8452 88.5013 16.1781 86.1483 13.451 82.0302 13.1477 79.3031 15.5007 79.0609 15.7096 78.8346 15.936 78.6257 16.1781 66.1433 29.8452 48.9388 38.2653 30.4879 39.7373 27.0597 40.0577 24.4467 42.9481 24.4725 46.3912L24.4725 63.1834C24.4725 99.6903 47.6907 133.085 79.9286 153.75 82.143 155.173 84.984 155.173 87.1984 153.75 119.436 133.078 142.655 99.6903 142.655 63.1834L142.655 46.3912C142.68 42.9481 140.067 40.0577 136.639 39.7373ZM131.347 63.1834C131.347 92.2345 114.04 121.543 85.0482 141.599L83.5626 142.627 82.0788 141.599C53.0869 121.541 35.778 92.2275 35.778 63.1834L35.778 50.5697 37.9768 50.2218C54.3583 47.63 69.6054 40.2453 81.7952 28.9989L83.5626 27.3689 85.3318 28.9989C97.5207 40.2454 112.767 47.6303 129.148 50.2218L131.347 50.5697Z" fill="#156082" transform="matrix(1.00599 0 0 1 536 199)"/><path d="M83.5626 34.4246C71.4844 44.9875 56.7783 52.0939 40.9968 54.9935L40.9968 63.1834C40.9968 90.02 56.8739 117.222 83.5626 136.265 110.251 117.224 126.128 90.0217 126.128 63.1834L126.128 54.9935C110.347 52.0939 95.6409 44.9875 83.5626 34.4246ZM102.648 97.5906 96.6704 103.568 83.4496 90.347 70.2287 103.568 64.262 97.5906 77.4828 84.3698 64.262 71.149 70.2392 65.1718 83.46 78.3926 96.6808 65.1718 102.648 71.149 89.4268 84.3698Z" fill="#156082" transform="matrix(1.00599 0 0 1 536 199)"/></g></svg>