<svg width="168" height="168" xmlns="http://www.w3.org/2000/svg" xmlns:xlink="http://www.w3.org/1999/xlink" xml:space="preserve" overflow="hidden"><g transform="translate(-525 -366)"><path d="M591.938 473.24C604.779 482.663 622.828 479.891 632.251 467.049 640.134 456.305 639.63 441.56 631.032 431.38Z" fill="#156082"/><path d="M609 421.125C593.061 421.144 580.144 434.061 580.125 450 580.122 455.527 581.72 460.937 584.727 465.575L623 424.712C618.715 422.345 613.896 421.11 609 421.125Z" fill="#156082"/><path d="M635.46 386.125 582.54 386.125 545.125 423.54 545.125 476.46 582.54 513.875 635.46 513.875 672.875 476.46 672.875 423.54ZM609 489.375C587.254 489.375 569.625 471.746 569.625 450 569.625 428.254 587.254 410.625 609 410.625 630.746 410.625 648.375 428.254 648.375 450 648.356 471.738 630.738 489.356 609 489.375Z" fill="#156082"/></g></svg>