<svg width="168" height="168" xmlns="http://www.w3.org/2000/svg" xmlns:xlink="http://www.w3.org/1999/xlink" xml:space="preserve" overflow="hidden"><g transform="translate(-312 -554)"><path d="M439.75 571.5 439.75 568C439.75 564.15 436.6 561 432.75 561L404.75 561 404.75 571.5C404.75 575.35 407.9 578.5 411.75 578.5L432.75 578.5C436.6 578.5 439.75 575.35 439.75 571.5" fill="#156082"/><path d="M424 583.75C422.075 583.75 420.5 585.325 420.5 587.25L420.5 601.25C420.5 603.175 422.075 604.75 424 604.75 425.925 604.75 427.5 603.175 427.5 601.25L427.5 587.25C427.5 585.325 425.925 583.75 424 583.75" fill="#156082"/><path d="M449.2 594.6 439.225 584.625C437.825 583.225 435.725 583.225 434.325 584.625 432.925 586.025 432.925 588.125 434.325 589.525L444.3 599.5C445 600.2 445.875 600.55 446.75 600.55 447.625 600.55 448.5 600.2 449.2 599.5 450.6 598.275 450.6 596 449.2 594.6" fill="#156082"/><path d="M409.3 584.8 399.325 594.775C397.925 596.175 397.925 598.275 399.325 599.675 400.025 600.375 400.9 600.725 401.775 600.725 402.65 600.725 403.525 600.375 404.225 599.675L414.2 589.7C415.6 588.3 415.6 586.2 414.2 584.8 412.8 583.4 410.7 583.4 409.3 584.8" fill="#156082"/><path d="M348.75 613.5 348.75 685.25 343.5 685.25 341.75 715 366.25 715 364.5 685.25 359.25 685.25 359.25 613.5C359.25 591.45 376.225 573.425 397.75 571.675L397.75 561.175C370.45 562.925 348.75 585.675 348.75 613.5" fill="#156082"/></g></svg>