<svg width="96" height="96" xmlns="http://www.w3.org/2000/svg" xmlns:xlink="http://www.w3.org/1999/xlink" xml:space="preserve" overflow="hidden"><g transform="translate(-640 -249)"><path d="M729 284.7C718.3 282.6 704.5 281.7 692 286.7 689.4 287.6 686.6 287.6 684 286.7 671.5 281.7 657.7 282.6 647 284.7 645.4 285 644 286.1 644 287.7 644 289.4 645.3 290.7 647 290.7 647 290.7 647.9 294.7 649.3 301.2 650.7 307.7 654.2 311 665 311 670.3 311 674.2 310.8 677 308 680.5 304.4 684.4 294.9 684.4 294.9 685.1 293.6 686.5 292.8 688 292.8 689.5 292.8 690.9 293.6 691.6 294.9 691.6 294.9 695.5 304.4 699 308 701.8 310.8 705.7 311 711 311 721.8 311 725.2 307.8 726.7 301.2 728.2 294.6 729 290.8 729 290.8 730.7 290.8 732 289.5 732 287.8 732 286 730.6 285 729 284.7Z" fill="#156082"/></g></svg>