<svg width="1760" height="1760" xmlns="http://www.w3.org/2000/svg" xmlns:xlink="http://www.w3.org/1999/xlink" xml:space="preserve" overflow="hidden"><defs><clipPath id="clip0"><rect x="1320" y="358" width="1760" height="1760"/></clipPath></defs><g clip-path="url(#clip0)" transform="translate(-1320 -358)"><path d="M3046 1237.5C3046 1704.46 2667.23 2083 2200 2083 1732.77 2083 1354 1704.46 1354 1237.5 1354 770.543 1732.77 392 2200 392 2667.23 392 3046 770.543 3046 1237.5Z" fill="#F2E4FF" fill-rule="evenodd"/><path d="M2201.8 1957.95 2201.8 1851.27C2539.71 1850.3 2813.32 1576.13 2813.32 1237.98 2813.32 899.846 2539.71 625.679 2201.8 624.703L2201.8 518.026C2598.63 519.027 2919.97 840.934 2919.97 1237.98 2919.97 1635.04 2598.63 1956.97 2201.8 1957.95ZM2201.8 1584.57C2392.4 1583.57 2546.67 1428.84 2546.67 1237.98 2546.67 1047.14 2392.4 892.407 2201.8 891.407L2201.8 784.755C2451.33 785.728 2653.34 988.228 2653.34 1237.98 2653.34 1487.75 2451.33 1690.24 2201.8 1691.22L2201.8 1584.57ZM2201.8 1051.41C2304.04 1052.39 2386.67 1135.49 2386.67 1237.98 2386.67 1340.48 2304.04 1423.59 2201.8 1424.57L2201.8 1051.41ZM1320 1237.98C1320 1724.01 1713.97 2118 2200 2118 2686.01 2118 3080 1724.01 3080 1237.98 3080 751.968 2686.01 358 2200 358 1713.97 358 1320 751.968 1320 1237.98Z" fill="#156082" fill-rule="evenodd"/><path d="M0 0C438.515 0 794 353.921 794 790.5 794 1227.08 438.515 1581 0 1581L0 0Z" fill-rule="evenodd" transform="matrix(-1 1.22465e-16 1.22465e-16 1 2200 457)"/><path d="M0 0C438.515 0 794 353.921 794 790.5 794 1227.08 438.515 1581 0 1581L0 0Z" stroke="#156082" stroke-width="3.4375" stroke-miterlimit="8" fill="#156082" fill-rule="evenodd" transform="matrix(-1 1.22465e-16 1.22465e-16 1 2200.5 457.5)"/></g></svg>