<svg width="726" height="726" xmlns="http://www.w3.org/2000/svg" xmlns:xlink="http://www.w3.org/1999/xlink" xml:space="preserve" overflow="hidden"><g transform="translate(-3003 -1707)"><path d="M3426.5 1803.8C3397.01 1791.7 3366.76 1784.89 3337.26 1782.63 3428.01 1861.28 3462.8 1992.11 3414.4 2110.08 3366 2228.06 3248.02 2295.36 3128.54 2287.04 3151.23 2306.71 3177.69 2323.34 3206.43 2335.44 3353.14 2395.94 3521.03 2326.37 3581.53 2179.66 3642.03 2032.94 3573.21 1865.06 3426.5 1803.8Z" fill="#004667"/><g><g><g><path d="M293.906 259.875 250.938 216.906C245.094 211.062 237.188 209 229.625 210.375L214.5 195.25C227.906 178.062 235.812 156.062 235.812 132.688 235.812 75.9688 189.406 29.5625 132.688 29.5625 75.9688 29.5625 29.5625 75.9688 29.5625 132.688 29.5625 189.406 75.9688 235.812 132.688 235.812 156.062 235.812 177.719 227.906 195.25 214.5L210.375 229.625C209 237.188 211.062 245.094 216.906 250.938L259.875 293.906C264.688 298.719 270.875 301.125 277.062 301.125 283.25 301.125 289.438 298.719 294.25 293.906 303.188 284.281 303.188 269.156 293.906 259.875ZM132.344 214.844C86.9688 214.844 49.8438 177.719 49.8438 132.344 49.8438 86.9688 86.9688 49.8438 132.344 49.8438 177.719 49.8438 214.844 86.9688 214.844 132.344 214.844 177.719 177.719 214.844 132.344 214.844Z" fill="#004667" transform="matrix(-1 0 0 1 3424 1905)"/></g></g></g></g></svg>