<svg width="386" height="386" xmlns="http://www.w3.org/2000/svg" xmlns:xlink="http://www.w3.org/1999/xlink" xml:space="preserve" overflow="hidden"><defs><clipPath id="clip0"><rect x="981" y="1561" width="386" height="386"/></clipPath><clipPath id="clip1"><rect x="981" y="1624" width="367" height="323"/></clipPath><clipPath id="clip2"><rect x="981" y="1624" width="367" height="323"/></clipPath></defs><g clip-path="url(#clip0)" transform="translate(-981 -1561)"><path d="M981 1598.06C981 1577.59 997.592 1561 1018.06 1561L1329.94 1561C1350.41 1561 1367 1577.59 1367 1598.06L1367 1909.94C1367 1930.41 1350.41 1947 1329.94 1947L1018.06 1947C997.592 1947 981 1930.41 981 1909.94Z" fill="#DE6E36" fill-rule="evenodd"/><g clip-path="url(#clip1)"><g clip-path="url(#clip2)"><g><path d="M2375.96 1531.58C2419.52 1543.26 2447.29 1580.85 2437.99 1615.54 2428.69 1650.21 2385.83 1668.86 2342.27 1657.17 2298.7 1645.49 2270.94 1607.9 2280.24 1573.21 2289.55 1538.54 2332.4 1519.89 2375.96 1531.58Z" fill="#156082" fill-rule="evenodd" transform="matrix(1 0 0 1 -1210.59 97.7666)"/><path d="M2223.29 1632.36C2258.15 1568.26 2311.98 1530.19 2343.53 1547.35 2375.08 1564.5 2372.4 1630.37 2337.54 1694.48 2302.69 1758.59 2248.85 1796.64 2217.31 1779.49 2185.76 1762.34 2188.44 1696.47 2223.29 1632.36Z" fill="#156082" fill-rule="evenodd" transform="matrix(1 0 0 1 -1210.59 97.7666)"/><path d="M2388.84 1645.88C2447.32 1689.52 2458.16 1773.9 2413.06 1834.33 2367.97 1894.76 2284 1908.37 2225.51 1864.72 2167.03 1821.07 2156.19 1736.71 2201.29 1676.28 2246.4 1615.85 2330.37 1602.24 2388.84 1645.88Z" fill="#156082" fill-rule="evenodd" transform="matrix(1 0 0 1 -1210.59 97.7666)"/><path d="M2479.5 1610.51C2523.76 1619.16 2558.48 1632.11 2557.06 1639.42 2555.63 1646.75 2518.58 1645.68 2474.32 1637.04 2430.05 1628.4 2395.33 1615.45 2396.76 1608.13 2398.19 1600.81 2435.23 1601.87 2479.5 1610.51Z" fill="#156082" fill-rule="evenodd" transform="matrix(1 0 0 1 -1210.59 97.7666)"/><path d="M2463.2 1630.55C2508.06 1630.55 2544.44 1636.64 2544.44 1644.17 2544.44 1651.69 2508.06 1657.78 2463.2 1657.78 2418.33 1657.78 2381.95 1651.69 2381.95 1644.17 2381.95 1636.64 2418.33 1630.55 2463.2 1630.55Z" fill="#156082" fill-rule="evenodd" transform="matrix(1 0 0 1 -1210.59 97.7666)"/><path d="M2436.43 1614.58C2454.58 1614.58 2469.3 1620.68 2469.3 1628.2 2469.3 1635.72 2454.58 1641.82 2436.43 1641.82 2418.27 1641.82 2403.55 1635.72 2403.55 1628.2 2403.55 1620.68 2418.27 1614.58 2436.43 1614.58Z" fill="#156082" fill-rule="evenodd" transform="matrix(1 0 0 1 -1210.59 97.7666)"/><path d="M2402.56 1650.03C2415 1636.91 2429.79 1630.73 2435.58 1636.22 2441.37 1641.71 2435.98 1656.81 2423.53 1669.92 2411.09 1683.04 2396.3 1689.22 2390.51 1683.74 2384.72 1678.24 2390.11 1663.15 2402.56 1650.03Z" fill="#156082" fill-rule="evenodd" transform="matrix(1 0 0 1 -1210.59 97.7666)"/></g></g></g></g></svg>