<svg width="1718" height="1354" xmlns="http://www.w3.org/2000/svg" xmlns:xlink="http://www.w3.org/1999/xlink" xml:space="preserve" overflow="hidden"><g transform="translate(-1257 -480)"><path d="M1259.23 1171.7C1253.69 1159.52 1259.07 1145.14 1271.26 1139.6L1592.92 993.28C1605.11 987.737 1619.48 993.121 1625.02 1005.31L1665.17 1093.55C1670.71 1105.74 1665.32 1120.11 1653.14 1125.65L1331.47 1271.97C1319.29 1277.52 1304.92 1272.13 1299.38 1259.95Z" fill="#156082" fill-rule="evenodd"/><path d="M1444.45 1331.68C1438.91 1319.5 1444.29 1305.13 1456.48 1299.58L1778.14 1153.26C1790.33 1147.72 1804.7 1153.1 1810.24 1165.29L1850.38 1253.54C1855.93 1265.72 1850.54 1280.09 1838.36 1285.63L1516.69 1431.96C1504.51 1437.5 1490.14 1432.11 1484.59 1419.93Z" fill="#156082" fill-rule="evenodd"/><path d="M1361.76 1610.41C1356.22 1598.23 1361.61 1583.85 1373.79 1578.31L1695.46 1431.99C1707.64 1426.45 1722.01 1431.83 1727.55 1444.02L1767.7 1532.26C1773.24 1544.45 1767.86 1558.82 1755.67 1564.36L1434.01 1710.68C1421.82 1716.23 1407.45 1710.84 1401.91 1698.66Z" fill="#156082" fill-rule="evenodd"/><path d="M1678.43 1676.6C1672.89 1664.41 1678.27 1650.04 1690.46 1644.5L2012.12 1498.18C2024.31 1492.63 2038.68 1498.02 2044.22 1510.2L2084.37 1598.45C2089.91 1610.63 2084.52 1625 2072.34 1630.55L1750.67 1776.87C1738.49 1782.41 1724.12 1777.03 1718.58 1764.84Z" fill="#156082" fill-rule="evenodd"/><path d="M1654.05 771.348C1648.51 759.164 1653.89 744.793 1666.08 739.251L1987.74 592.928C1999.93 587.385 2014.3 592.77 2019.84 604.954L2059.98 693.202C2065.53 705.387 2060.14 719.757 2047.96 725.3L1726.29 871.622C1714.11 877.165 1699.74 871.781 1694.19 859.596Z" fill="#73D0DC" fill-rule="evenodd"/><path d="M1811.98 1008.57C1806.44 996.381 1811.82 982.011 1824.01 976.468L2145.67 830.145C2157.86 824.603 2172.23 829.987 2177.77 842.172L2217.91 930.42C2223.46 942.604 2218.07 956.975 2205.89 962.517L1884.22 1108.84C1872.04 1114.38 1857.67 1109 1852.13 1096.81Z" fill="#156082" fill-rule="evenodd"/><path d="M1944.68 1254.89C1939.14 1242.7 1944.52 1228.33 1956.71 1222.79L2278.38 1076.47C2290.56 1070.92 2304.93 1076.31 2310.47 1088.49L2350.62 1176.74C2356.16 1188.92 2350.77 1203.29 2338.59 1208.84L2016.92 1355.16C2004.74 1360.7 1990.37 1355.32 1984.83 1343.13Z" fill="#73D0DC" fill-rule="evenodd"/><path d="M2122.52 1465.74C2116.98 1453.56 2122.36 1439.19 2134.55 1433.64L2456.22 1287.32C2468.4 1281.78 2482.77 1287.16 2488.31 1299.35L2528.46 1387.59C2534 1399.78 2528.61 1414.15 2516.43 1419.69L2194.76 1566.02C2182.58 1571.56 2168.21 1566.17 2162.67 1553.99Z" fill="#156082" fill-rule="evenodd"/><path d="M2097.63 1731.18C2092.09 1719 2097.48 1704.63 2109.66 1699.09L2431.33 1552.76C2443.51 1547.22 2457.88 1552.6 2463.42 1564.79L2503.57 1653.04C2509.11 1665.22 2503.72 1679.59 2491.54 1685.13L2169.87 1831.46C2157.69 1837 2143.32 1831.62 2137.78 1819.43Z" fill="#73D0DC" fill-rule="evenodd"/><path d="M2097.63 661.309C2092.09 649.124 2097.48 634.754 2109.66 629.211L2431.33 482.889C2443.51 477.346 2457.88 482.73 2463.42 494.915L2503.57 583.163C2509.11 595.347 2503.72 609.718 2491.54 615.26L2169.87 761.583C2157.69 767.126 2143.32 761.741 2137.78 749.557Z" fill="#FAEAE2" fill-rule="evenodd"/><path d="M2307.23 872.164C2301.69 859.98 2307.08 845.609 2319.26 840.067L2640.93 693.744C2653.11 688.201 2667.48 693.586 2673.02 705.77L2713.17 794.018C2718.71 806.203 2713.32 820.573 2701.14 826.116L2379.47 972.438C2367.29 977.981 2352.92 972.597 2347.38 960.412Z" fill="#156082" fill-rule="evenodd"/><path d="M2464.82 1088.18C2459.28 1075.99 2464.67 1061.62 2476.85 1056.08L2798.52 909.756C2810.7 904.213 2825.07 909.598 2830.61 921.782L2870.76 1010.03C2876.3 1022.21 2870.92 1036.58 2858.73 1042.13L2537.06 1188.45C2524.88 1193.99 2510.51 1188.61 2504.97 1176.42Z" fill="#FAEAE2" fill-rule="evenodd"/><path d="M2566.11 1450.43C2560.56 1438.24 2565.95 1423.87 2578.13 1418.33L2899.8 1272.01C2911.98 1266.47 2926.35 1271.85 2931.89 1284.03L2972.04 1372.28C2977.58 1384.47 2972.2 1398.84 2960.01 1404.38L2638.35 1550.7C2626.16 1556.24 2611.79 1550.86 2606.25 1538.68Z" fill="#FAEAE2" fill-rule="evenodd"/><path d="M0 0 316.669 12.0513" stroke="#156082" stroke-width="27.5" stroke-miterlimit="8" fill="none" fill-rule="evenodd" transform="matrix(1 0 0 -1 1565 1061.05)"/><path d="M0 0 153.87 230.715" stroke="#156082" stroke-width="27.5" stroke-miterlimit="8" fill="none" fill-rule="evenodd" transform="matrix(1 0 0 -1 1752 1259.72)"/><path d="M0 0 523.235 24.951" stroke="#156082" stroke-width="27.5" stroke-miterlimit="8" fill="none" fill-rule="evenodd" transform="matrix(1 0 0 -1 1691 1477.95)"/><path d="M0 0 199.016 72.1276" stroke="#156082" stroke-width="27.5" stroke-miterlimit="8" fill="none" fill-rule="evenodd" transform="matrix(1 0 0 -1 2015 1566.13)"/><path d="M0 0 13.6114 442.302" stroke="#156082" stroke-width="27.5" stroke-miterlimit="8" fill="none" fill-rule="evenodd" transform="matrix(1 0 0 -1 2433 1375.3)"/><path d="M2124 898 2387.37 904.46" stroke="#156082" stroke-width="27.5" stroke-miterlimit="8" fill="none" fill-rule="evenodd"/></g></svg>